<!-- Generated by IcoMoon.io -->
<svg version="1.1" xmlns="http://www.w3.org/2000/svg" width="512" height="512" viewBox="0 0 512 512">
<title></title>
<g id="icomoon-ignore">
</g>
<path d="M507.332 411.331c-0.004-0.004-0.004-0.004-0.004-0.004l-155.323-155.323 155.323-155.323c0.004-0.004 0.004-0.004 0.004-0.004 1.672-1.676 2.884-3.628 3.656-5.709 2.124-5.689 0.912-12.341-3.66-16.917l-73.371-73.371c-4.572-4.572-11.228-5.78-16.917-3.66-2.080 0.772-4.036 1.984-5.709 3.652 0 0.004-0.004 0.004-0.004 0.004l-155.323 155.323-155.323-155.323c-0.004-0.004-0.004-0.004-0.004-0.004-1.676-1.668-3.628-2.88-5.709-3.652-5.692-2.124-12.341-0.916-16.917 3.66l-73.371 73.371c-4.572 4.572-5.785 11.228-3.66 16.917 0.776 2.080 1.988 4.036 3.656 5.709 0.004 0.004 0.004 0.004 0.004 0.004l155.323 155.323-155.323 155.323c-0.004 0.004-0.004 0.004-0.004 0.004-1.668 1.676-2.88 3.628-3.66 5.709-2.124 5.688-0.916 12.341 3.66 16.917l73.371 73.371c4.572 4.572 11.228 5.784 16.917 3.66 2.080-0.776 4.036-1.988 5.709-3.656 0.004-0.004 0.004-0.004 0.004-0.004l155.323-155.323 155.323 155.323c0.004 0.004 0.004 0.004 0.004 0.004 1.676 1.672 3.628 2.884 5.709 3.66 5.692 2.124 12.341 0.916 16.917-3.66l73.371-73.371c4.572-4.572 5.788-11.228 3.66-16.917-0.776-2.080-1.988-4.036-3.66-5.709z"></path>
</svg>
